<?xml version="1.0" standalone="no"?>
<!DOCTYPE svg PUBLIC "-//W3C//DTD SVG 20010904//EN"
 "http://www.w3.org/TR/2001/REC-SVG-20010904/DTD/svg10.dtd">
<svg version="1.0" xmlns="http://www.w3.org/2000/svg"
 width="700.000000pt" height="700.000000pt" viewBox="0 0 700.000000 700.000000"
 preserveAspectRatio="xMidYMid meet">
<metadata>
Created by potrace 1.11, written by Peter Selinger 2001-2013
</metadata>
<g transform="translate(0.000000,700.000000) scale(0.100000,-0.100000)"
fill="#000000" stroke="none">
<path d="M1830 6259 c-36 -3 -56 -7 -45 -8 11 -1 29 -4 40 -6 11 -2 45 -6 75
-9 157 -16 296 -88 337 -174 26 -54 22 -157 -6 -208 -35 -63 -110 -104 -188
-104 -52 0 -257 72 -393 138 -190 92 -304 132 -480 168 -196 41 -427 8 -669
-97 -58 -24 -63 -34 -10 -18 35 10 168 14 204 5 11 -2 43 -9 70 -15 132 -30
246 -76 405 -164 34 -19 210 -136 220 -147 3 -3 17 -13 31 -22 96 -61 332
-279 432 -398 49 -59 165 -222 194 -274 64 -111 137 -275 150 -335 26 -122 2
-278 -57 -365 -45 -64 -136 -116 -205 -116 -38 0 -120 27 -193 65 -53 27 -181
118 -194 139 -4 6 -8 7 -8 3 0 -4 31 -47 68 -95 140 -178 304 -434 424 -662
50 -94 133 -293 220 -525 17 -44 39 -102 50 -130 11 -27 37 -99 58 -160 114
-324 260 -646 408 -900 35 -60 73 -125 84 -144 19 -34 99 -152 108 -161 3 -3
21 -25 40 -50 177 -229 465 -479 705 -613 252 -140 388 -186 705 -238 135 -22
451 -16 588 11 271 54 491 142 733 293 122 76 164 110 304 251 380 381 565
834 567 1385 0 149 -7 218 -38 366 -107 507 -336 925 -719 1312 -253 256 -476
420 -771 567 -168 84 -349 152 -521 196 -69 17 -173 32 -173 25 0 -1 38 -24
84 -50 234 -131 351 -276 363 -449 20 -277 -246 -433 -516 -302 -123 59 -290
251 -490 563 -233 363 -594 777 -900 1033 -29 25 -59 50 -65 55 -62 55 -213
154 -315 205 -258 130 -479 180 -711 159z m1374 -2351 c47 -47 174 -159 241
-213 204 -162 417 -271 680 -345 205 -58 329 -82 530 -105 28 -3 61 -8 75 -10
14 -3 35 -7 48 -10 13 -2 31 -6 40 -9 9 -3 28 -7 42 -10 43 -7 179 -55 248
-88 291 -135 464 -397 466 -703 1 -155 -17 -243 -76 -360 -144 -284 -370 -440
-668 -461 -137 -10 -309 25 -435 89 -162 81 -409 334 -551 563 -123 199 -298
605 -419 974 -44 136 -205 580 -250 693 -10 23 1 21 29 -5z"/>
</g>
</svg>
