<?xml version="1.0" encoding="UTF-8" standalone="no"?>
<svg
   xmlns:dc="http://purl.org/dc/elements/1.1/"
   xmlns:cc="http://creativecommons.org/ns#"
   xmlns:rdf="http://www.w3.org/1999/02/22-rdf-syntax-ns#"
   xmlns:svg="http://www.w3.org/2000/svg"
   xmlns="http://www.w3.org/2000/svg"
   xmlns:sodipodi="http://sodipodi.sourceforge.net/DTD/sodipodi-0.dtd"
   xmlns:inkscape="http://www.inkscape.org/namespaces/inkscape"
   version="1.1"
   id="Layer_1"
   x="0px"
   y="0px"
   viewBox="0 0 500 500"
   style="enable-background:new 0 0 500 500;"
   xml:space="preserve"
   sodipodi:docname="mediafire-direct-dl-logo-2.svg"
   inkscape:version="1.0.2 (e86c8708, 2021-01-15)"
   inkscape:export-filename="/Users/andrew/Documents/GitHub/mediafire-direct-dl/favicon.png"
   inkscape:export-xdpi="196.60799"
   inkscape:export-ydpi="196.60799"><metadata
   id="metadata127"><rdf:RDF><cc:Work
       rdf:about=""><dc:format>image/svg+xml</dc:format><dc:type
         rdf:resource="http://purl.org/dc/dcmitype/StillImage" /><dc:title /></cc:Work></rdf:RDF></metadata><defs
   id="defs125" /><sodipodi:namedview
   pagecolor="#ffffff"
   bordercolor="#666666"
   borderopacity="1"
   objecttolerance="10"
   gridtolerance="10"
   guidetolerance="10"
   inkscape:pageopacity="0"
   inkscape:pageshadow="2"
   inkscape:window-width="1440"
   inkscape:window-height="847"
   id="namedview123"
   showgrid="false"
   inkscape:zoom="0.89516568"
   inkscape:cx="150.49411"
   inkscape:cy="210.32183"
   inkscape:window-x="1"
   inkscape:window-y="25"
   inkscape:window-maximized="0"
   inkscape:current-layer="Layer_1"
   inkscape:document-rotation="0" />
<style
   type="text/css"
   id="style114">
	.st0{fill:#0077FF;}
	.st1{fill:#FFFFFF;}
</style>


<rect
   style="fill:#0077ff;fill-opacity:1;stroke-width:0.996847"
   id="rect852"
   width="500"
   height="500"
   x="0"
   y="0" /><g
   id="g120"
   style="fill:#ffbf00;fill-opacity:1"
   transform="matrix(1.1465382,1.0683572,-1.0683572,1.1465382,225.52657,-323.91712)">
	<path
   class="st1"
   d="m 386.7,185.2 c 24,21.9 34,48.9 29.9,81.1 -6.4,32.4 -24.8,55.3 -55,68.6 -21.9,7.5 -43.9,8.4 -66,2.6 -18.5,-5.2 -36.1,-12.3 -52.8,-21.6 -9,-4.5 -17.9,-8.8 -26.7,-12.9 -15.7,-6 -31.8,-10.1 -48.3,-12.2 6.6,0.4 13,-0.6 19,-3.2 3.9,-1.9 6,-4.8 6.4,-8.7 0.4,-3.9 -0.5,-7.4 -2.9,-10.6 -2.6,-4.1 -6,-7.1 -10.1,-9 -4.2,-1.9 -8.5,-3.5 -13,-4.8 -14.8,-3.9 -29.8,-4.5 -45.1,-1.9 -11.6,1.1 -22.1,4.7 -31.5,10.9 -3.7,2.8 -6.3,6.1 -8,10 5.2,-13.5 11.6,-22.8 19.3,-27.8 7.7,-5 15.5,-8.5 23.2,-10.5 6,-1.7 11.5,-4 16.4,-6.8 2.4,-1.7 3.8,-3.9 4.3,-6.4 0.5,-2.6 -0.1,-4.9 -1.8,-7.1 -2.4,-3.4 -5.6,-4.9 -9.7,-4.5 -5.2,1.3 -9.7,3.5 -13.5,6.8 -1.5,1.1 -2.8,2 -3.9,2.9 4.1,-4.7 8.3,-8.6 12.7,-11.6 4.4,-3 10.5,-5.7 18.2,-8 7.7,-2.4 17.4,-3.5 29,-3.5 14.2,0 28.3,1.4 42.5,4.2 4.1,0.4 8.2,1.3 12.2,2.6 9.2,2.6 18.5,4.1 27.7,4.5 5.4,-0.2 9.8,-1.9 13.4,-5 3.5,-3.1 5.3,-6.9 5.3,-11.4 0,-4.3 -1.8,-8 -5.3,-11.1 -3.5,-3.1 -8,-4.8 -13.4,-5 -5.8,0.2 -11.6,1.2 -17.4,2.9 1.5,-1.1 2.9,-2.1 4.2,-3.2 21.2,-12 44.1,-17.5 68.6,-16.4 27.2,0.6 51.3,9.4 72.1,26.1 z m -81.1,46.1 c -7.7,5.8 -17,11 -27.7,15.6 -10.7,4.6 -24.7,6.6 -41.8,6 7.3,3.7 15,7.5 23.2,11.6 13.9,8.2 28.2,15.1 42.8,20.8 14.6,5.7 29.1,7.5 43.5,5.3 9.9,-2.6 17.5,-7.9 23,-15.9 5.5,-8 7.1,-17.2 5,-27.5 -2.1,-10.1 -7.2,-17.8 -15.3,-23.2 -8,-5.4 -17.2,-7.1 -27.5,-5.2 -8.7,2.1 -17.1,6.3 -25.2,12.5 z"
   id="path118"
   style="fill:#ffbf00;fill-opacity:1" />
</g></svg>
